<svg width="23" height="21" viewBox="0 0 23 21" fill="none" xmlns="http://www.w3.org/2000/svg">
<path d="M3.55518 1.83301C3.55518 2.7542 2.8084 3.50098 1.88721 3.50098C0.966013 3.50098 0.219238 2.7542 0.219238 1.83301C0.219238 0.911814 0.966013 0.165039 1.88721 0.165039C2.8084 0.165039 3.55518 0.911814 3.55518 1.83301Z" fill="#D9D9D9"/>
<path d="M9.93311 1.83301C9.93311 2.7542 9.18633 3.50098 8.26514 3.50098C7.34394 3.50098 6.59717 2.7542 6.59717 1.83301C6.59717 0.911814 7.34394 0.165039 8.26514 0.165039C9.18633 0.165039 9.93311 0.911814 9.93311 1.83301Z" fill="#D9D9D9"/>
<path d="M16.311 1.83301C16.311 2.7542 15.5643 3.50098 14.6431 3.50098C13.7219 3.50098 12.9751 2.7542 12.9751 1.83301C12.9751 0.911814 13.7219 0.165039 14.6431 0.165039C15.5643 0.165039 16.311 0.911814 16.311 1.83301Z" fill="#D9D9D9"/>
<path d="M22.689 1.83301C22.689 2.7542 21.9422 3.50098 21.021 3.50098C20.0998 3.50098 19.353 2.7542 19.353 1.83301C19.353 0.911814 20.0998 0.165039 21.021 0.165039C21.9422 0.165039 22.689 0.911814 22.689 1.83301Z" fill="#D9D9D9"/>
<path d="M3.55518 7.5238C3.55518 8.445 2.8084 9.19177 1.88721 9.19177C0.966013 9.19177 0.219238 8.445 0.219238 7.5238C0.219238 6.60261 0.966013 5.85583 1.88721 5.85583C2.8084 5.85583 3.55518 6.60261 3.55518 7.5238Z" fill="#D9D9D9"/>
<path d="M9.93311 7.5238C9.93311 8.445 9.18633 9.19177 8.26514 9.19177C7.34394 9.19177 6.59717 8.445 6.59717 7.5238C6.59717 6.60261 7.34394 5.85583 8.26514 5.85583C9.18633 5.85583 9.93311 6.60261 9.93311 7.5238Z" fill="#D9D9D9"/>
<path d="M16.311 7.5238C16.311 8.445 15.5643 9.19177 14.6431 9.19177C13.7219 9.19177 12.9751 8.445 12.9751 7.5238C12.9751 6.60261 13.7219 5.85583 14.6431 5.85583C15.5643 5.85583 16.311 6.60261 16.311 7.5238Z" fill="#D9D9D9"/>
<path d="M22.689 7.5238C22.689 8.445 21.9422 9.19177 21.021 9.19177C20.0998 9.19177 19.353 8.445 19.353 7.5238C19.353 6.60261 20.0998 5.85583 21.021 5.85583C21.9422 5.85583 22.689 6.60261 22.689 7.5238Z" fill="#D9D9D9"/>
<path d="M3.55518 13.4482C3.55518 14.3694 2.8084 15.1162 1.88721 15.1162C0.966013 15.1162 0.219238 14.3694 0.219238 13.4482C0.219238 12.527 0.966013 11.7803 1.88721 11.7803C2.8084 11.7803 3.55518 12.527 3.55518 13.4482Z" fill="#D9D9D9"/>
<path d="M9.93311 13.4482C9.93311 14.3694 9.18633 15.1162 8.26514 15.1162C7.34394 15.1162 6.59717 14.3694 6.59717 13.4482C6.59717 12.527 7.34394 11.7803 8.26514 11.7803C9.18633 11.7803 9.93311 12.527 9.93311 13.4482Z" fill="#D9D9D9"/>
<path d="M16.311 13.4482C16.311 14.3694 15.5643 15.1162 14.6431 15.1162C13.7219 15.1162 12.9751 14.3694 12.9751 13.4482C12.9751 12.527 13.7219 11.7803 14.6431 11.7803C15.5643 11.7803 16.311 12.527 16.311 13.4482Z" fill="#D9D9D9"/>
<path d="M22.689 13.4482C22.689 14.3694 21.9422 15.1162 21.021 15.1162C20.0998 15.1162 19.353 14.3694 19.353 13.4482C19.353 12.527 20.0998 11.7803 21.021 11.7803C21.9422 11.7803 22.689 12.527 22.689 13.4482Z" fill="#D9D9D9"/>
<path d="M3.55518 19.139C3.55518 20.0602 2.8084 20.807 1.88721 20.807C0.966013 20.807 0.219238 20.0602 0.219238 19.139C0.219238 18.2178 0.966013 17.4711 1.88721 17.4711C2.8084 17.4711 3.55518 18.2178 3.55518 19.139Z" fill="#D9D9D9"/>
<path d="M9.93311 19.139C9.93311 20.0602 9.18633 20.807 8.26514 20.807C7.34394 20.807 6.59717 20.0602 6.59717 19.139C6.59717 18.2178 7.34394 17.4711 8.26514 17.4711C9.18633 17.4711 9.93311 18.2178 9.93311 19.139Z" fill="#D9D9D9"/>
<path d="M16.311 19.139C16.311 20.0602 15.5643 20.807 14.6431 20.807C13.7219 20.807 12.9751 20.0602 12.9751 19.139C12.9751 18.2178 13.7219 17.4711 14.6431 17.4711C15.5643 17.4711 16.311 18.2178 16.311 19.139Z" fill="#D9D9D9"/>
<path d="M22.689 19.139C22.689 20.0602 21.9422 20.807 21.021 20.807C20.0998 20.807 19.353 20.0602 19.353 19.139C19.353 18.2178 20.0998 17.4711 21.021 17.4711C21.9422 17.4711 22.689 18.2178 22.689 19.139Z" fill="#D9D9D9"/>
</svg>
