<svg width="14" height="18" viewBox="0 0 14 18" fill="none" xmlns="http://www.w3.org/2000/svg">
<path d="M13.9953 8.64993C13.9953 12.1076 11.472 14.9862 8.17044 15.5419V16.8048C8.17044 17.4478 7.6497 17.9697 7.00547 17.9697C6.36124 17.9697 5.8405 17.4478 5.8405 16.8048V15.5419C2.53896 14.9862 0.015625 12.1076 0.015625 8.64993C0.015625 8.00687 0.536368 7.48496 1.1806 7.48496C1.82483 7.48496 2.34557 8.00687 2.34557 8.64993C2.34557 11.2199 4.43554 13.3098 7.00547 13.3098C9.5754 13.3098 11.6654 11.2199 11.6654 8.64993C11.6654 8.00687 12.1861 7.48496 12.8303 7.48496C13.4746 7.48496 13.9953 8.00687 13.9953 8.64993ZM4.67552 8.64993V2.82507C4.67552 1.53777 5.71817 0.495117 7.00547 0.495117C8.29276 0.495117 9.33542 1.53777 9.33542 2.82507V8.64993C9.33542 9.93723 8.29276 10.9799 7.00547 10.9799C5.71817 10.9799 4.67552 9.93723 4.67552 8.64993Z" fill="white"/>
</svg>
