<svg width="26" height="30" viewBox="0 0 26 30" fill="none" xmlns="http://www.w3.org/2000/svg">
<path d="M13.6458 29.81C9.51931 29.81 7.50115 23.2101 7.41724 22.9291L8.63204 22.5659C9.1304 24.2282 11.0027 28.5421 13.6458 28.5421C15.2373 28.5421 16.3829 26.9544 17.0637 25.6225C17.8529 24.0785 18.2126 22.521 18.2162 22.5054L19.4525 22.7869C19.3872 23.0736 17.8055 29.81 13.6458 29.81Z" fill="#009000"/>
<path d="M18.4038 9.08301H8.83319C8.48306 9.08301 8.19922 9.36685 8.19922 9.71698V10.7328C8.19922 12.1899 9.38468 13.3754 10.8418 13.3754C12.2989 13.3754 13.4844 12.1899 13.4844 10.7328V10.3509H13.7526V10.7328C13.7526 12.1899 14.938 13.3754 16.3952 13.3754C17.8523 13.3754 19.0378 12.1899 19.0378 10.7328V9.71698C19.0378 9.36685 18.7539 9.08301 18.4038 9.08301ZM12.2165 10.7328C12.2165 11.4907 11.5998 12.1074 10.8418 12.1074C10.0838 12.1074 9.46716 11.4908 9.46716 10.7328V10.3509H12.0417H12.2165V10.7328ZM17.7699 10.7328C17.7699 11.4907 17.1532 12.1074 16.3952 12.1074C15.6372 12.1074 15.0205 11.4908 15.0205 10.7328V10.3509H15.1953H17.7698V10.7328H17.7699Z" fill="#009000"/>
<path d="M25.9721 28.4616L25.2216 25.3082C24.9259 24.0655 23.9862 23.0847 22.7692 22.7487C22.7524 22.744 22.7354 22.7401 22.7183 22.7368L18.3464 21.9096C17.666 21.7134 17.1189 21.1926 16.8801 20.5117L16.3283 18.9395C17.9868 18.0754 19.2365 16.4441 19.6753 14.4781H20.3001C21.7689 14.4781 22.9639 13.268 22.9639 11.7806C22.9639 10.268 21.7589 9.08316 20.2206 9.08316H19.8465V6.32706V2.9514C19.8465 1.49039 18.6578 0.301758 17.1968 0.301758H10.0399C8.57892 0.301758 7.39028 1.49039 7.39028 2.9514V6.32712V9.08437L6.9808 9.08322C5.51201 9.08322 4.31703 10.2932 4.31703 11.7806C4.31703 13.268 5.51195 14.4781 6.9808 14.4781H7.5614C7.98172 16.3613 9.14615 17.9371 10.701 18.8259L10.1494 20.537C9.93256 21.2097 9.41311 21.7397 8.7558 21.9614L3.65061 22.9444C3.626 22.9491 3.60168 22.9553 3.57776 22.9629C2.40002 23.3387 1.50388 24.3314 1.23894 25.5537L0.603929 28.4832C0.533098 28.81 0.612517 29.1463 0.821899 29.406C1.02915 29.6628 1.33645 29.8102 1.66514 29.8102H24.9159C25.2488 29.8102 25.5586 29.6598 25.7658 29.3974C25.9753 29.1322 26.0505 28.7911 25.9721 28.4616ZM20.2205 10.3512C21.0478 10.3512 21.6959 10.9791 21.6959 11.7806C21.6959 12.5689 21.0698 13.2102 20.3001 13.2102H19.8402C19.844 13.1139 19.8464 13.0172 19.8464 12.9199V10.3512L20.2205 10.3512ZM8.65822 2.9514C8.65822 2.18955 9.27807 1.5697 10.0399 1.5697H17.1968C17.9587 1.5697 18.5786 2.18955 18.5786 2.9514V5.69315H8.65822V2.9514ZM6.9808 13.2102C6.21116 13.2102 5.58497 12.5689 5.58497 11.7806C5.58497 10.9924 6.2111 10.3512 6.97901 10.3512L7.39028 10.3523V12.9198C7.39028 13.0171 7.39265 13.1138 7.39651 13.2101L6.9808 13.2102ZM8.65822 12.9198V6.96109H18.5785V12.9199C18.5785 15.9077 16.3534 18.3385 13.6183 18.3385C10.8833 18.3385 8.65822 15.9077 8.65822 12.9198ZM13.6183 19.6064C14.1456 19.6064 14.6576 19.5354 15.147 19.4024L15.6836 20.9316C15.8146 21.3049 16.0062 21.6466 16.2445 21.9478C14.5982 22.9788 12.4846 22.9756 10.8397 21.9312C11.0618 21.6298 11.2384 21.2917 11.3563 20.926L11.8684 19.3373C12.4238 19.5122 13.011 19.6064 13.6183 19.6064ZM1.88864 28.5422L2.47812 25.8223C2.64479 25.0537 3.1994 24.4282 3.92979 24.1818L9.03503 23.1988C9.05964 23.1941 9.08396 23.1879 9.10788 23.1803C9.38429 23.0921 9.64514 22.9691 9.88674 22.8175C10.9577 23.579 12.244 23.9945 13.5554 23.9945C13.5735 23.9945 13.5917 23.9945 13.6098 23.9943C14.9095 23.9829 16.1805 23.5636 17.2387 22.8065C17.4861 22.9485 17.7521 23.061 18.0325 23.1384C18.0493 23.143 18.0663 23.147 18.0834 23.1502L22.4553 23.9775C23.2153 24.1965 23.8014 24.8167 23.9882 25.6017L24.688 28.5422H1.88864Z" fill="#009000"/>
</svg>
