<svg width="75" height="75" viewBox="0 0 75 75" fill="none" xmlns="http://www.w3.org/2000/svg">
<path d="M37.7351 74.7853C31.9957 74.796 26.3319 73.4764 21.1884 70.93C16.0448 68.3836 11.5614 64.6797 8.09011 60.1091C4.61882 55.5384 2.25409 50.2255 1.18156 44.5872C0.109033 38.9489 0.357884 33.1388 1.90858 27.6129C3.45928 22.0869 6.26963 16.9956 10.119 12.7385C13.9684 8.48144 18.7521 5.17447 24.0945 3.07718C29.437 0.979896 35.1929 0.149372 40.9103 0.650806C46.6277 1.15224 52.1512 2.97198 57.047 5.9672C57.6119 6.31771 58.018 6.87449 58.1793 7.51945C58.3405 8.16441 58.2442 8.84681 57.9107 9.42192C57.5543 9.98012 56.9977 10.3807 56.3552 10.5413C55.7127 10.7019 55.0331 10.6104 54.456 10.2856C48.44 6.59687 41.3712 5.0056 34.3549 5.76057C27.3385 6.51554 20.7701 9.57419 15.6766 14.4583C10.583 19.3424 7.25147 25.7767 6.20277 32.7552C5.15407 39.7337 6.44734 46.863 9.88039 53.0284C13.3134 59.1939 18.6927 64.048 25.1773 66.8319C31.6618 69.6157 38.886 70.1723 45.7205 68.4147C52.555 66.6571 58.6144 62.6844 62.9514 57.1176C67.2884 51.5508 69.6586 44.7038 69.6913 37.647C69.6909 35.6861 69.4942 33.7302 69.104 31.8085C68.9712 31.131 69.1107 30.4284 69.4922 29.8529C69.8737 29.2774 70.4665 28.8754 71.1423 28.7338C71.4761 28.6636 71.8205 28.661 72.1554 28.726C72.4902 28.7909 72.8086 28.9223 73.0919 29.1122C73.3753 29.3021 73.6177 29.5469 73.805 29.8319C73.9922 30.117 74.1206 30.4367 74.1824 30.7721C74.6442 33.0462 74.8757 35.3611 74.8734 37.6816C74.8551 47.5225 70.9353 56.9545 63.9735 63.9099C57.0117 70.8652 47.576 74.7762 37.7351 74.7853Z" fill="#20BF55"/>
<path d="M36.975 49.0131C36.6346 49.0147 36.2973 48.9483 35.9829 48.8178C35.6684 48.6872 35.3833 48.4952 35.144 48.253L19.9433 33.0522C19.458 32.5664 19.1855 31.9079 19.1855 31.2212C19.1855 30.5346 19.458 29.876 19.9433 29.3902C20.1814 29.1458 20.4662 28.9515 20.7806 28.8188C21.0951 28.6862 21.433 28.6179 21.7743 28.6179C22.1156 28.6179 22.4534 28.6862 22.7679 28.8188C23.0823 28.9515 23.3671 29.1458 23.6053 29.3902L36.975 42.76L68.3094 11.4602C68.5476 11.2158 68.8323 11.0215 69.1468 10.8888C69.4612 10.7562 69.7991 10.6878 70.1404 10.6878C70.4817 10.6878 70.8195 10.7562 71.134 10.8888C71.4485 11.0215 71.7332 11.2158 71.9714 11.4602C72.4566 11.946 72.7292 12.6046 72.7292 13.2912C72.7292 13.9778 72.4566 14.6364 71.9714 15.1222L38.806 48.253C38.5705 48.5001 38.286 48.6954 37.9707 48.8263C37.6555 48.9571 37.3163 49.0208 36.975 49.0131Z" fill="#20BF55"/>
</svg>
