<svg width="21" height="21" viewBox="0 0 21 21" fill="none" xmlns="http://www.w3.org/2000/svg">
<g clip-path="url(#clip0_1559_1249)">
<path d="M15.7349 8.99366V2.29386C15.7349 1.57394 15.1492 0.988281 14.4292 0.988281H3.81364C3.09372 0.988281 2.50806 1.57394 2.50806 2.29386V16.2162C2.50806 16.9361 3.09372 17.5218 3.81364 17.5218H11.8269V19.6261C11.8269 20.0858 12.3248 20.3775 12.7264 20.1481L14.5324 19.1161C16.5271 20.2559 16.4228 20.2273 16.6367 20.2273C16.9687 20.2273 17.2379 19.9577 17.2379 19.6261V15.5293C19.3778 13.4735 18.5302 9.89977 15.7349 8.99366ZM3.81364 16.3194C3.75675 16.3194 3.71049 16.2731 3.71049 16.2162V2.29386C3.71049 2.23697 3.75675 2.19072 3.81364 2.19072H14.4293C14.4862 2.19072 14.5324 2.23697 14.5324 2.29386V8.80412C12.3776 8.80412 10.6245 10.5572 10.6245 12.712C10.6245 13.8178 11.0862 14.8177 11.8269 15.5293V16.3194H3.81364ZM16.0355 18.59L14.8307 17.9016C14.6458 17.796 14.419 17.796 14.2341 17.9016L13.0293 18.59V16.3192C13.988 16.7201 15.0755 16.7207 16.0354 16.3192L16.0355 18.59ZM14.5324 15.4175C13.0406 15.4175 11.8269 14.2039 11.8269 12.712C11.8269 11.2202 13.0406 10.0066 14.5324 10.0066C16.0242 10.0066 17.2379 11.2202 17.2379 12.712C17.2379 14.2039 16.0242 15.4175 14.5324 15.4175Z" fill="#62656F"/>
<path d="M14.2318 14.2523C13.997 14.2523 13.967 14.1967 12.9971 13.5501C12.7208 13.3659 12.6461 12.9926 12.8303 12.7163C13.0145 12.44 13.3878 12.3654 13.664 12.5496L14.0656 12.8173L14.9346 11.5139C15.1188 11.2376 15.4921 11.163 15.7683 11.3471C16.0446 11.5313 16.1193 11.9046 15.9351 12.1809L14.7327 13.9845C14.6167 14.1583 14.4261 14.2523 14.2318 14.2523Z" fill="#62656F"/>
<path d="M11.226 5.19658H6.11562C5.7836 5.19658 5.5144 4.92738 5.5144 4.59536C5.5144 4.26334 5.7836 3.99414 6.11562 3.99414H11.226C11.558 3.99414 11.8272 4.26334 11.8272 4.59536C11.8272 4.92738 11.558 5.19658 11.226 5.19658Z" fill="#62656F"/>
<path d="M11.226 7.60185H6.11562C5.7836 7.60185 5.5144 7.33266 5.5144 7.00063C5.5144 6.66861 5.7836 6.39941 6.11562 6.39941H11.226C11.558 6.39941 11.8272 6.66861 11.8272 7.00063C11.8272 7.33266 11.558 7.60185 11.226 7.60185Z" fill="#62656F"/>
<path d="M9.12171 10.0061H6.11562C5.7836 10.0061 5.5144 9.73695 5.5144 9.40493C5.5144 9.07291 5.7836 8.80371 6.11562 8.80371H9.12171C9.45374 8.80371 9.72293 9.07291 9.72293 9.40493C9.72293 9.73695 9.45374 10.0061 9.12171 10.0061Z" fill="#62656F"/>
</g>
<defs>
<clipPath id="clip0_1559_1249">
<rect width="19.2398" height="19.2398" fill="white" transform="translate(0.854492 0.988281)"/>
</clipPath>
</defs>
</svg>
