<svg width="25" height="25" viewBox="0 0 25 25" fill="none" xmlns="http://www.w3.org/2000/svg">
<g clip-path="url(#clip0_1260_312)">
<path d="M8.33438 8.06887C8.29063 8.06887 8.37813 8.07408 8.33438 8.06887V8.06887ZM4.19167 6.24387C4.06354 6.80429 4.41458 7.36262 4.975 7.49075C6.02917 7.73137 7.24687 7.93137 8.33333 8.06887C8.85104 8.06887 9.29896 7.6845 9.36562 7.15741C9.4375 6.58658 9.03333 6.06575 8.4625 5.99387C7.44271 5.86575 6.42604 5.68658 5.43958 5.46054C4.88021 5.32929 4.31979 5.68346 4.19167 6.24387ZM8.33438 16.4272C8.29063 16.4272 8.37813 16.4324 8.33438 16.4272V16.4272ZM8.4625 14.3522C7.44687 14.2251 6.43021 14.046 5.44062 13.8199C4.88125 13.6907 4.32083 14.0418 4.19271 14.6032C4.06458 15.1637 4.41562 15.722 4.97604 15.8501C6.03333 16.0918 7.25 16.2918 8.33438 16.4272C8.85208 16.4272 9.30104 16.0418 9.36667 15.5147C9.4375 14.9439 9.03333 14.423 8.4625 14.3522ZM8.33438 12.2355C8.29063 12.2355 8.37813 12.2407 8.33438 12.2355V12.2355ZM8.46354 10.1605C7.44375 10.0324 6.42708 9.85325 5.44062 9.6272C4.88125 9.49491 4.32083 9.85012 4.19271 10.4105C4.06458 10.971 4.41562 11.5293 4.97604 11.6574C6.03021 11.898 7.24792 12.098 8.33438 12.2355C8.85208 12.2355 9.3 11.8512 9.36667 11.3241C9.43854 10.7532 9.03437 10.2324 8.46354 10.1605ZM16.6656 16.4282C16.6219 16.4335 16.7083 16.4282 16.6656 16.4282V16.4282ZM21.0781 21.298C20.0302 21.5762 18.9562 21.8012 17.8625 21.9741C19.6802 22.4262 21.8281 22.823 24.0042 22.9189C24.5792 22.9439 25.024 23.4303 24.999 24.0053C24.975 24.5647 24.5135 25.0012 23.9594 25.0012C23.9437 25.0012 23.9281 25.0012 23.9125 25.0012C18.7573 24.7751 13.9115 23.0293 12.5 22.4793C11.0885 23.0293 6.24375 24.7751 1.0875 25.0012C1.07187 25.0012 1.05625 25.0012 1.04062 25.0012C0.486458 25.0012 0.025 24.5647 0.00104167 24.0053C-0.0239583 23.4303 0.420833 22.9439 0.995833 22.9189C3.17187 22.823 5.31979 22.4262 7.1375 21.9741C6.04271 21.8012 4.96875 21.5762 3.92083 21.298C1.6125 20.6855 0 18.6074 0 16.2439V4.68762C0 3.22721 0.661458 1.87304 1.81562 0.975122C2.95521 0.0876222 4.40833 -0.218628 5.79792 0.133456C8.48125 0.813664 10.549 1.11887 12.5031 1.12512C14.45 1.11887 16.5177 0.813664 19.2021 0.133456C20.5906 -0.217586 22.0458 0.0876222 23.1844 0.975122C24.3375 1.87304 25 3.22721 25 4.68762V16.2439C25 18.6074 23.3875 20.6855 21.0781 21.298ZM11.4583 3.18033C9.63021 3.08658 7.68021 2.76054 5.2875 2.15429C5.08021 2.10116 4.87083 2.07616 4.66354 2.07616C4.10313 2.07616 3.55417 2.26366 3.09583 2.61887C2.45208 3.11991 2.08333 3.87408 2.08333 4.68762V16.2439C2.08333 17.6626 3.05833 18.9126 4.45417 19.2835C6.68125 19.8741 9.03229 20.2126 11.4583 20.2939V3.18033ZM20.5448 19.2835C21.9417 18.9137 22.9167 17.6626 22.9167 16.2439V4.68762C22.9167 3.87408 22.5479 3.11991 21.9042 2.61887C21.275 2.13033 20.4802 1.95741 19.7125 2.15429C17.3177 2.76158 15.3667 3.08762 13.5417 3.18137V20.2949C15.9646 20.2147 18.3177 19.8751 20.5448 19.2845V19.2835ZM16.6656 8.06887C16.6208 8.07408 16.7083 8.06887 16.6656 8.06887V8.06887ZM19.5594 5.46054C18.5719 5.68658 17.5542 5.86575 16.5365 5.99387C15.9656 6.06575 15.5604 6.58658 15.6333 7.15741C15.699 7.6845 16.1479 8.06887 16.6656 8.06887C17.7521 7.93241 18.9687 7.73241 20.024 7.49075C20.5844 7.36262 20.9354 6.80429 20.8073 6.24387C20.6792 5.68241 20.1177 5.32825 19.5594 5.46054ZM16.6656 12.2355C16.6208 12.2407 16.7083 12.2355 16.6656 12.2355V12.2355ZM19.5594 9.6272C18.5719 9.85325 17.5542 10.0324 16.5365 10.1605C15.9656 10.2324 15.5604 10.7532 15.6333 11.3241C15.699 11.8512 16.1479 12.2355 16.6656 12.2355C17.7521 12.0991 18.9687 11.8991 20.024 11.6574C20.5844 11.5293 20.9354 10.971 20.8073 10.4105C20.6792 9.84804 20.1177 9.49595 19.5594 9.6272ZM19.5594 13.8199C18.5688 14.046 17.5521 14.2251 16.5375 14.3522C15.9667 14.423 15.5615 14.9439 15.6333 15.5147C15.699 16.0418 16.1479 16.4282 16.6656 16.4282C17.749 16.2928 18.9656 16.0928 20.024 15.8501C20.5844 15.722 20.9354 15.1637 20.8073 14.6032C20.6792 14.0407 20.1177 13.6897 19.5594 13.8199Z" fill="#D9D9D9"/>
</g>
<defs>
<clipPath id="clip0_1260_312">
<rect width="25" height="25" fill="white"/>
</clipPath>
</defs>
</svg>
