<svg width="44" height="43" viewBox="0 0 44 43" fill="none" xmlns="http://www.w3.org/2000/svg">
<path d="M13.4071 25.0393C17.3307 25.0393 20.5214 21.8485 20.5214 17.925C20.5214 14.0014 17.3307 10.8107 13.4071 10.8107C9.48355 10.8107 6.29278 14.0014 6.29278 17.925C6.29278 21.8485 9.48355 25.0393 13.4071 25.0393ZM13.4071 12.5892C16.3489 12.5892 18.7429 14.9832 18.7429 17.925C18.7429 20.8668 16.3489 23.2607 13.4071 23.2607C10.4653 23.2607 8.07136 20.8668 8.07136 17.925C8.07136 14.9832 10.4653 12.5892 13.4071 12.5892ZM25.8572 41.0465V41.9358C25.8572 42.4267 25.4588 42.8251 24.9679 42.8251C24.477 42.8251 24.0786 42.4267 24.0786 41.9358V41.0465C24.0786 35.1612 19.2924 30.3751 13.4071 30.3751C7.52178 30.3751 2.73561 35.1612 2.73561 41.0465V41.9358C2.73561 42.4267 2.33721 42.8251 1.84632 42.8251C1.35543 42.8251 0.957031 42.4267 0.957031 41.9358V41.0465C0.957031 34.183 6.54178 28.5965 13.4071 28.5965C20.2724 28.5965 25.8572 34.183 25.8572 41.0465ZM35.7016 0.13916H17.8536C14.1986 0.13916 11.0114 2.60783 10.1025 6.14187C9.97978 6.61854 10.2661 7.10231 10.7428 7.22503C11.2106 7.34775 11.7032 7.0614 11.8259 6.58652C12.532 3.83683 15.0132 1.91774 17.8553 1.91774H35.7034C39.1361 1.91774 41.9285 4.71012 41.9285 8.13922L41.8662 24.15C41.8662 27.5827 39.0738 30.3751 35.6412 30.3751H34.7519V27.7072C34.7519 26.2363 33.5549 25.0393 32.084 25.0393H28.5268C27.0559 25.0393 25.859 26.2363 25.859 27.7072V29.4858C25.859 30.9567 27.0559 32.1536 28.5268 32.1536H35.6412C40.0538 32.1536 43.6448 28.5627 43.6448 24.1536L43.707 8.14278C43.707 3.73012 40.1143 0.13916 35.7016 0.13916ZM32.9715 30.3751H28.5251C28.0342 30.3751 27.6358 29.9749 27.6358 29.4858V27.7072C27.6358 27.2181 28.0342 26.8179 28.5251 26.8179H32.0822C32.5731 26.8179 32.9715 27.2181 32.9715 27.7072V30.3751Z" fill="#2F2E41"/>
</svg>
