<svg width="21" height="21" viewBox="0 0 21 21" fill="none" xmlns="http://www.w3.org/2000/svg">
<g clip-path="url(#clip0_1559_1234)">
<path d="M13.9021 12.3075L11.2196 10.2956V6.19732C11.2196 5.78524 10.8865 5.45215 10.4744 5.45215C10.0623 5.45215 9.72925 5.78524 9.72925 6.19732V10.6682C9.72925 10.903 9.83954 11.1243 10.0273 11.2644L13.0079 13.4998C13.142 13.6004 13.2985 13.6489 13.4543 13.6489C13.6815 13.6489 13.9051 13.5468 14.0511 13.3501C14.2986 13.0214 14.2315 12.5542 13.9021 12.3075Z" fill="#62656F"/>
<path d="M10.4746 0.989258C5.1699 0.989258 0.854736 5.30443 0.854736 10.6092C0.854736 15.9139 5.1699 20.2291 10.4746 20.2291C15.7794 20.2291 20.0946 15.9139 20.0946 10.6092C20.0946 5.30443 15.7794 0.989258 10.4746 0.989258ZM10.4746 18.7388C5.99256 18.7388 2.34503 15.0913 2.34503 10.6092C2.34503 6.12708 5.99256 2.47955 10.4746 2.47955C14.9575 2.47955 18.6043 6.12708 18.6043 10.6092C18.6043 15.0913 14.9567 18.7388 10.4746 18.7388Z" fill="#62656F"/>
</g>
<defs>
<clipPath id="clip0_1559_1234">
<rect width="19.2398" height="19.2398" fill="white" transform="translate(0.854492 0.989258)"/>
</clipPath>
</defs>
</svg>
