<svg width="19" height="19" viewBox="0 0 19 19" fill="none" xmlns="http://www.w3.org/2000/svg">
<g clip-path="url(#clip0_1329_4277)">
<path d="M10.9326 9.49898L8.33987 12.0917C7.92062 12.511 7.34087 12.751 6.74912 12.751H6.62012V12.622C6.62012 12.0302 6.86012 11.4505 7.27937 11.0312L9.87212 8.43848L10.9326 9.49898ZM11.7149 6.59573L10.9326 7.37798L11.9931 8.43848L12.7754 7.65623C13.0679 7.36373 13.0679 6.88823 12.7754 6.59573C12.4829 6.30323 12.0081 6.30248 11.7149 6.59573ZM18.6201 9.75098C18.6201 14.7137 14.5829 18.751 9.62012 18.751C4.65737 18.751 0.620117 14.7137 0.620117 9.75098C0.620117 4.78823 4.65737 0.750977 9.62012 0.750977C14.5829 0.750977 18.6201 4.78823 18.6201 9.75098ZM13.8359 5.53523C12.9584 4.65773 11.5319 4.65773 10.6544 5.53523L6.21887 9.97073C5.51087 10.6787 5.12012 11.6207 5.12012 12.622V13.501C5.12012 13.9157 5.45537 14.251 5.87012 14.251H6.74912C7.75037 14.251 8.69237 13.8602 9.40037 13.1522L13.8359 8.71673C14.7134 7.83923 14.7134 6.41273 13.8359 5.53523Z" fill="#222021"/>
</g>
<defs>
<clipPath id="clip0_1329_4277">
<rect width="18" height="18" fill="white" transform="translate(0.620117 0.750977)"/>
</clipPath>
</defs>
</svg>
