<svg xmlns="http://www.w3.org/2000/svg" width="22.051" height="11.82" viewBox="0 0 22.051 11.82">
  <g id="Group_162465" data-name="Group 162465" transform="translate(0 -0.502)">
    <g id="Page-1" transform="translate(0 0.501)">
      <g id="visible" transform="translate(0 0)">
        <path id="Shape" d="M11.526.3C6.145.3.936,5.434.727,5.661a.778.778,0,0,0,0,1.1c.227.227,5.418,5.361,10.8,5.361s10.59-5.134,10.8-5.361a.778.778,0,0,0,0-1.1C22.116,5.434,16.925.3,11.526.3Zm0,10.249c-3.77,0-7.654-3.069-9.112-4.357C3.872,4.9,7.756,1.834,11.526,1.834S19.179,4.9,20.638,6.192C19.179,7.48,15.3,10.549,11.526,10.549Z" transform="translate(-0.5 -0.3)"/>
        <path id="Shape-2" data-name="Shape" d="M44,20.024A3.424,3.424,0,1,0,47.424,16.6,3.431,3.431,0,0,0,44,20.024Zm4.928,0A1.527,1.527,0,1,1,47.4,18.5,1.556,1.556,0,0,1,48.928,20.024Z" transform="translate(-36.381 -14.129)"/>
      </g>
    </g>
  </g>
</svg>
