<svg width="26" height="30" viewBox="0 0 26 30" fill="none" xmlns="http://www.w3.org/2000/svg">
<path d="M24.6334 25.4394V29.164C24.6334 29.5168 24.3473 29.8022 23.9951 29.8022H1.57967C1.22747 29.8022 0.941406 29.5168 0.941406 29.164V25.4394C0.941406 23.4683 2.34212 21.7479 4.27259 21.3487L10.0037 20.1627L10.2624 21.4131L4.53138 22.5985C3.19101 22.8759 2.21794 24.0706 2.21794 25.4394V28.5257H5.66053V26.5059C5.66053 26.1537 5.94601 25.8676 6.2988 25.8676C6.65101 25.8676 6.93707 26.1537 6.93707 26.5059V28.5257H18.4102V26.5059C18.4102 26.1537 18.6963 25.8676 19.0485 25.8676C19.4013 25.8676 19.6868 26.1537 19.6868 26.5059V28.5257H23.3568V25.4394C23.3568 24.8522 23.1706 24.2777 22.8189 23.7776L23.8628 23.043C24.367 23.759 24.6334 24.5882 24.6334 25.4394Z" fill="#009000"/>
<path d="M20.3083 25.1128C17.273 25.1128 14.8036 22.6433 14.8036 19.6081C14.8036 19.2556 15.0893 18.9698 15.4418 18.9698C15.7943 18.9698 16.0801 19.2556 16.0801 19.6081C16.0801 21.9395 17.9769 23.8362 20.3083 23.8362C22.4419 23.8362 24.2115 22.2478 24.4964 20.1913C22.5143 19.8663 20.9972 18.1414 20.9972 16.0688V9.5801C20.9972 7.38643 20.1428 5.32424 18.5912 3.77348C17.0407 2.22365 14.9796 1.37029 12.7874 1.37029H12.7831C8.25852 1.37261 4.57745 5.09348 4.57745 9.66482V14.594C4.57745 17.6573 7.0696 20.1495 10.1329 20.1495C10.4854 20.1495 10.7711 20.4352 10.7711 20.7877C10.7711 21.1402 10.4854 21.426 10.1329 21.426C6.36576 21.426 3.30091 18.3612 3.30091 14.594V9.66482C3.30097 4.38999 7.55433 0.0964191 12.7824 0.09375H12.7874C15.3206 0.09375 17.7019 1.0797 19.4936 2.87062C21.2864 4.66253 22.2737 7.0453 22.2737 9.5801V16.0687C22.2737 17.6684 23.575 18.9697 25.1747 18.9697C25.5272 18.9697 25.8129 19.2555 25.8129 19.608C25.813 22.6433 23.3435 25.1128 20.3083 25.1128Z" fill="#009000"/>
<path d="M18.3452 8.75621L10.2636 5.33509C9.99263 5.22021 9.67756 5.30608 9.50233 5.54282L6.9655 8.96394C6.88427 9.07419 6.84017 9.20706 6.84017 9.344V13.1196C6.84017 15.1818 7.89563 17.0026 9.49478 18.0691V20.4928C9.49478 22.3084 10.9715 23.7857 12.7871 23.7857C14.6027 23.7857 16.08 22.3084 16.08 20.4928V18.0691C17.6791 17.0026 18.7346 15.1818 18.7346 13.1196V9.344C18.7346 9.08753 18.5808 8.8566 18.3452 8.75621ZM14.8035 20.4928C14.8035 21.6046 13.8989 22.5092 12.7871 22.5092C11.6754 22.5092 10.7714 21.6046 10.7714 20.4928V18.7144C11.4009 18.9424 12.0798 19.0666 12.7871 19.0666C13.4945 19.0666 14.1739 18.9424 14.8035 18.7144V20.4928ZM17.4581 13.1196C17.4581 15.6948 15.3629 17.79 12.7871 17.79C10.212 17.79 8.11676 15.6948 8.11676 13.1196V9.55521L10.2289 6.70621L17.4581 9.767V13.1196Z" fill="#009000"/>
</svg>
