<svg width="23" height="23" viewBox="0 0 23 23" fill="none" xmlns="http://www.w3.org/2000/svg">
<path d="M11.7993 22.5898C5.73396 22.5898 0.799316 17.6552 0.799316 11.5898C0.799316 5.52449 5.73396 0.589844 11.7993 0.589844C17.8647 0.589844 22.7993 5.52449 22.7993 11.5898C22.7993 17.6552 17.8647 22.5898 11.7993 22.5898ZM11.7993 1.96484C6.49205 1.96484 2.17432 6.28257 2.17432 11.5898C2.17432 16.8971 6.49205 21.2148 11.7993 21.2148C17.1066 21.2148 21.4243 16.8971 21.4243 11.5898C21.4243 6.28257 17.1066 1.96484 11.7993 1.96484ZM17.9144 13.9599C18.0833 13.6219 17.9467 13.2133 17.6103 13.0418C17.2732 12.8716 16.8607 13.0056 16.6868 13.3407C16.6363 13.4374 15.4151 15.7148 11.7993 15.7148C8.19223 15.7148 6.96825 13.4486 6.91234 13.3416C6.74207 13.0038 6.3298 12.867 5.99178 13.0375C5.65215 13.2073 5.51442 13.6203 5.68423 13.9599C5.7484 14.0878 7.301 17.0898 11.7993 17.0898C16.2976 17.0898 17.8502 14.0878 17.9144 13.9599ZM15.2368 10.2148C14.4785 10.2148 13.8618 9.59816 13.8618 8.83984C13.8618 8.08153 14.4785 7.46484 15.2368 7.46484C15.9951 7.46484 16.6118 8.08153 16.6118 8.83984C16.6118 9.59816 15.9951 10.2148 15.2368 10.2148ZM8.36182 10.2148C7.6035 10.2148 6.98682 9.59816 6.98682 8.83984C6.98682 8.08153 7.6035 7.46484 8.36182 7.46484C9.12013 7.46484 9.73682 8.08153 9.73682 8.83984C9.73682 9.59816 9.12013 10.2148 8.36182 10.2148Z" fill="#009000"/>
</svg>
