<svg width="17" height="25" viewBox="0 0 17 25" fill="none" xmlns="http://www.w3.org/2000/svg">
<path d="M7.24512 13.5205H3.78012C4.12184 15.9027 6.1759 17.7393 8.65137 17.7393C11.1268 17.7393 13.1809 15.9027 13.5226 13.5205H10.0576V12.1143H13.5732V10.0049H10.0576V8.59863H13.5732V6.48926H10.0576V5.08301H13.5226C13.1809 2.70082 11.1268 0.864258 8.65137 0.864258C6.1759 0.864258 4.12184 2.70082 3.78012 5.08301H7.24512V6.48926H3.72949V8.59863H7.24512V10.0049H3.72949V12.1143H7.24512V13.5205Z" fill="#179148"/>
<path d="M9.35449 20.5204C13.2911 20.1636 16.3857 16.8449 16.3857 12.8174C16.2076 12.8174 15.3802 12.8174 14.9795 12.8174C14.9795 16.3102 12.1375 19.1455 8.65137 19.1455C5.16199 19.1455 2.32324 16.3068 2.32324 12.8174H0.916992C0.916992 16.8449 4.01168 20.1636 7.94824 20.5204V23.458H3.02637V24.8643H14.2764V23.458H9.35449V20.5204Z" fill="#179148"/>
</svg>
