<svg width="28" height="29" viewBox="0 0 28 29" fill="none" xmlns="http://www.w3.org/2000/svg">
<path d="M14.1086 0.904297C11.4281 0.904297 8.80769 1.69918 6.57888 3.18843C4.35006 4.67767 2.61291 6.7944 1.5871 9.27092C0.561292 11.7475 0.292893 14.4726 0.815847 17.1016C1.3388 19.7307 2.62962 22.1456 4.52507 24.0411C6.42052 25.9365 8.83548 27.2274 11.4645 27.7503C14.0936 28.2733 16.8187 28.0049 19.2952 26.9791C21.7718 25.9532 23.8885 24.2161 25.3777 21.9873C26.867 19.7585 27.6619 17.1381 27.6619 14.4575C27.658 10.8642 26.2288 7.41912 23.6879 4.87824C21.147 2.33736 17.702 0.908183 14.1086 0.904297ZM14.1086 25.7519C11.8748 25.7519 9.69119 25.0895 7.83384 23.8484C5.97649 22.6074 4.52887 20.8435 3.67403 18.7797C2.81918 16.7159 2.59552 14.445 3.03131 12.2541C3.46711 10.0632 4.54279 8.05075 6.12233 6.47121C7.70188 4.89166 9.71434 3.81598 11.9052 3.38018C14.0961 2.94439 16.367 3.16806 18.4308 4.0229C20.4946 4.87774 22.2585 6.32537 23.4996 8.18271C24.7406 10.0401 25.403 12.2237 25.403 14.4575C25.3997 17.452 24.2087 20.3228 22.0913 22.4402C19.9739 24.5576 17.1031 25.7486 14.1086 25.7519Z" fill="#D9D9D9"/>
<path d="M14.9184 6.62263C14.2671 6.50396 13.5977 6.52988 12.9575 6.69857C12.3173 6.86726 11.722 7.17458 11.2138 7.5988C10.7055 8.02302 10.2967 8.55376 10.0163 9.15346C9.73581 9.75316 9.5906 10.4072 9.5909 11.0692C9.5909 11.3688 9.70989 11.656 9.9217 11.8678C10.1335 12.0797 10.4208 12.1986 10.7203 12.1986C11.0199 12.1986 11.3072 12.0797 11.519 11.8678C11.7308 11.656 11.8498 11.3688 11.8498 11.0692C11.8495 10.7369 11.9225 10.4086 12.0637 10.1078C12.2048 9.80695 12.4106 9.54096 12.6664 9.32878C12.9221 9.11661 13.2215 8.96348 13.5433 8.8803C13.865 8.79713 14.2011 8.78597 14.5277 8.84761C14.9738 8.93422 15.3841 9.15187 15.7059 9.47274C16.0278 9.79362 16.2467 10.2032 16.3348 10.6491C16.4236 11.1171 16.3623 11.6013 16.1594 12.0323C15.9566 12.4634 15.6226 12.8193 15.2053 13.0491C14.5143 13.4495 13.9433 14.0278 13.5517 14.7238C13.1602 15.4199 12.9625 16.2082 12.9792 17.0067V17.8458C12.9792 18.1454 13.0982 18.4326 13.31 18.6445C13.5218 18.8563 13.8091 18.9753 14.1086 18.9753C14.4082 18.9753 14.6955 18.8563 14.9073 18.6445C15.1191 18.4326 15.2381 18.1454 15.2381 17.8458V17.0067C15.2239 16.6136 15.3135 16.2238 15.4979 15.8764C15.6823 15.529 15.955 15.2364 16.2884 15.0279C17.1067 14.5784 17.7657 13.8865 18.1747 13.0473C18.5837 12.2081 18.7227 11.2627 18.5725 10.3413C18.4223 9.41989 17.9903 8.56762 17.336 7.9017C16.6817 7.23579 15.8371 6.78895 14.9184 6.62263Z" fill="#D9D9D9"/>
<path d="M15.2381 21.2341C15.2381 20.6104 14.7324 20.1047 14.1086 20.1047C13.4849 20.1047 12.9792 20.6104 12.9792 21.2341C12.9792 21.8579 13.4849 22.3636 14.1086 22.3636C14.7324 22.3636 15.2381 21.8579 15.2381 21.2341Z" fill="#D9D9D9"/>
</svg>
