<svg width="26" height="26" viewBox="0 0 26 26" fill="none" xmlns="http://www.w3.org/2000/svg">
<path d="M24.2035 10.3504L16.3025 2.44831C15.3246 1.4733 14.0001 0.925781 12.6192 0.925781C11.2383 0.925781 9.91369 1.4733 8.93582 2.44831L1.03478 10.3504C0.743555 10.6398 0.512663 10.984 0.355489 11.3633C0.198315 11.7425 0.117984 12.1492 0.119153 12.5598V22.7858C0.119153 23.6146 0.448393 24.4095 1.03444 24.9955C1.6205 25.5816 2.41535 25.9108 3.24415 25.9108H21.9942C22.823 25.9108 23.6178 25.5816 24.2039 24.9955C24.7899 24.4095 25.1192 23.6146 25.1192 22.7858V12.5598C25.1203 12.1492 25.04 11.7425 24.8828 11.3633C24.7256 10.984 24.4948 10.6398 24.2035 10.3504ZM15.7442 23.8275H9.49415V19.7296C9.49415 18.9008 9.82339 18.1059 10.4094 17.5198C10.9955 16.9338 11.7904 16.6046 12.6192 16.6046C13.448 16.6046 14.2428 16.9338 14.8289 17.5198C15.4149 18.1059 15.7442 18.9008 15.7442 19.7296V23.8275ZM23.0358 22.7858C23.0358 23.0621 22.9261 23.327 22.7307 23.5224C22.5354 23.7177 22.2704 23.8275 21.9942 23.8275H17.8275V19.7296C17.8275 18.3482 17.2788 17.0235 16.302 16.0467C15.3253 15.07 14.0005 14.5212 12.6192 14.5212C11.2378 14.5212 9.91306 15.07 8.93631 16.0467C7.95955 17.0235 7.41082 18.3482 7.41082 19.7296V23.8275H3.24415C2.96789 23.8275 2.70293 23.7177 2.50758 23.5224C2.31223 23.327 2.20249 23.0621 2.20249 22.7858V12.5598C2.20345 12.2837 2.3131 12.0191 2.5077 11.8233L10.4087 3.92435C10.9959 3.3399 11.7907 3.01179 12.6192 3.01179C13.4476 3.01179 14.2424 3.3399 14.8296 3.92435L22.7306 11.8264C22.9245 12.0215 23.034 12.2848 23.0358 12.5598V22.7858Z" fill="#D9D9D9"/>
</svg>
