<svg width="80" height="65" viewBox="0 0 80 65" fill="none" xmlns="http://www.w3.org/2000/svg">
<g id="Group 31">
<g id="Mask group">
<path id="Vector" d="M39.4618 9.55512L39.4741 9.55507L39.4863 9.55441C45.5092 9.23209 59.1896 12.0447 66.1521 25.7534L64.1502 26.1082C61.498 20.8832 53.1728 11.1587 39.4637 11.4208C34.0799 11.2302 21.8713 13.7994 15.434 25.5494L13.5382 25.0722C16.2762 19.6132 24.8415 9.61925 39.4618 9.55512ZM44.3427 62.6884C57.8839 52.8857 72.8928 53.9713 79.3756 55.9865V59.7011C72.8571 57.0278 65.1701 57.2075 58.1896 58.5162C52.9585 59.497 48.088 61.1186 44.3427 62.6884ZM0.625977 55.9865C7.10876 53.9713 22.1176 52.8857 35.6588 62.6884C31.9135 61.1186 27.043 59.497 21.812 58.5162C14.8314 57.2075 7.14439 57.0278 0.625977 59.7011V55.9865ZM78.1813 50.1526C74.2454 50.1305 68.1366 50.6246 61.5452 52.1761C54.7571 53.7739 47.4221 56.5013 41.4186 60.9716V35.3189C44.2551 33.7398 48.8271 31.6575 53.6245 30.379C58.5276 29.0722 63.5486 28.6373 67.2035 30.3019L78.1813 50.1526ZM38.5829 60.9716C32.5794 56.5013 25.2444 53.7739 18.4563 52.1761C11.865 50.6246 5.75618 50.1305 1.82025 50.1526L12.7981 30.3019C16.4529 28.6373 21.4739 29.0722 26.3771 30.379C31.1744 31.6575 35.7464 33.7398 38.5829 35.3189V60.9716ZM1.38622 42.582C1.09296 35.579 2.54371 25.7873 7.78968 17.4493C13.4033 8.52698 23.3896 1.22229 40.3901 0.805006C47.1766 1.1614 57.189 3.73981 65.1662 10.2997C72.8836 16.646 78.732 26.7455 77.8813 42.2878L75.4599 38.6174C75.3229 32.9802 73.4313 24.5647 68.1826 17.3994C62.8729 10.1507 54.1445 4.20782 40.4157 3.70662C34.8205 3.49269 26.3036 4.98876 18.8784 10.1725C11.4531 15.3561 5.15538 24.2038 3.94668 38.6066L1.38622 42.582ZM22.4628 26.8005C24.8564 23.5507 31.0982 18.0323 40.1476 18.0323C49.1512 18.0323 54.9765 23.8554 57.148 27.3125L54.9268 27.4621C53.0501 24.4923 48.4014 20.0032 40.1476 20.0032C35.5976 20.0032 31.9281 21.3322 29.2568 22.9294C26.8447 24.3716 25.2175 26.051 24.498 27.198L22.4628 26.8005Z" stroke="#ADADAD"/>
</g>
</g>
</svg>
