<svg width="22" height="22" viewBox="0 0 22 22" fill="none" xmlns="http://www.w3.org/2000/svg">
<path d="M17.7808 2.81559C16.6414 1.86745 15.3179 1.16557 13.8939 0.754184C12.4698 0.3428 10.976 0.230827 9.50653 0.42532C6.78808 0.778481 4.30593 2.15298 2.56406 4.26972C0.822202 6.38647 -0.0487929 9.08678 0.127933 11.8224C0.304659 14.558 1.51586 17.1238 3.5156 18.9988C5.51534 20.8738 8.15372 21.9175 10.895 21.918H17.1737C18.3658 21.9165 19.5087 21.4424 20.3516 20.5994C21.1945 19.7565 21.6687 18.6137 21.6701 17.4216V10.4486C21.5749 8.97871 21.1809 7.54366 20.5122 6.23123C19.8434 4.91879 18.914 3.75655 17.7808 2.81559ZM7.28173 6.63031H10.8788C11.1173 6.63031 11.3461 6.72506 11.5147 6.8937C11.6834 7.06235 11.7781 7.29108 11.7781 7.52958C11.7781 7.76809 11.6834 7.99682 11.5147 8.16547C11.3461 8.33411 11.1173 8.42886 10.8788 8.42886H7.28173C7.04322 8.42886 6.81449 8.33411 6.64584 8.16547C6.4772 7.99682 6.38245 7.76809 6.38245 7.52958C6.38245 7.29108 6.4772 7.06235 6.64584 6.8937C6.81449 6.72506 7.04322 6.63031 7.28173 6.63031ZM14.4759 15.623H7.28173C7.04322 15.623 6.81449 15.5283 6.64584 15.3597C6.4772 15.191 6.38245 14.9623 6.38245 14.7238C6.38245 14.4853 6.4772 14.2565 6.64584 14.0879C6.81449 13.9192 7.04322 13.8245 7.28173 13.8245H14.4759C14.7144 13.8245 14.9432 13.9192 15.1118 14.0879C15.2804 14.2565 15.3752 14.4853 15.3752 14.7238C15.3752 14.9623 15.2804 15.191 15.1118 15.3597C14.9432 15.5283 14.7144 15.623 14.4759 15.623ZM14.4759 12.026H7.28173C7.04322 12.026 6.81449 11.9312 6.64584 11.7626C6.4772 11.5939 6.38245 11.3652 6.38245 11.1267C6.38245 10.8882 6.4772 10.6594 6.64584 10.4908C6.81449 10.3222 7.04322 10.2274 7.28173 10.2274H14.4759C14.7144 10.2274 14.9432 10.3222 15.1118 10.4908C15.2804 10.6594 15.3752 10.8882 15.3752 11.1267C15.3752 11.3652 15.2804 11.5939 15.1118 11.7626C14.9432 11.9312 14.7144 12.026 14.4759 12.026Z" fill="white"/>
</svg>
