<svg width="30" height="30" viewBox="0 0 30 30" fill="none" xmlns="http://www.w3.org/2000/svg">
<g clip-path="url(#clip0_1329_5146)">
<path d="M27.4161 27.8965L26.6785 24.7947C26.3879 23.5724 25.4644 22.6079 24.2684 22.2774C24.2512 22.2726 24.2338 22.2686 24.2163 22.2654L19.8393 21.4517C19.1779 21.2606 18.6448 20.7568 18.4064 20.0974L17.8216 17.9211C18.4497 17.6018 19.029 17.1658 19.5361 16.6234C19.8825 16.2529 20.1816 15.8468 20.4308 15.4139H21.8153C23.2588 15.4139 24.4332 14.2239 24.4332 12.7611C24.4332 11.2736 23.2489 10.1084 21.737 10.1084H21.3143V7.59381C21.3143 7.33106 21.1514 7.10676 20.9213 7.01517L20.8855 6.88818L10.2038 9.89297L9.81626 7.39251L8.58489 7.58333L8.97623 10.1087L8.59469 10.1084C7.15121 10.1084 5.97682 11.2984 5.97682 12.7611C5.97682 14.2239 7.15115 15.4139 8.59469 15.4139H10.0609C10.2862 15.7881 10.5468 16.1442 10.8404 16.4745C11.3023 16.9938 11.8176 17.4223 12.3696 17.7528L11.7783 20.1202C11.561 20.7754 11.0513 21.2905 10.4083 21.5051L5.94618 22.4729C5.92675 22.477 5.90761 22.4821 5.88869 22.4882C4.73124 22.8578 3.85053 23.8342 3.59015 25.0363L2.96615 27.9178C2.89653 28.2392 2.9747 28.5699 3.18064 28.8252C3.38421 29.0775 3.68616 29.2223 4.00907 29.2223H26.378C26.7051 29.2223 27.0095 29.0745 27.2132 28.8167C27.4191 28.5559 27.4931 28.2206 27.4161 27.8965ZM21.737 11.3545C22.5501 11.3545 23.1871 11.9724 23.1871 12.7612C23.1871 13.5368 22.5718 14.1679 21.8153 14.1679H20.9848C21.2013 13.503 21.3144 12.8 21.3144 12.0808V11.3545H21.737ZM8.59475 14.1679C7.83837 14.1679 7.22297 13.5368 7.22297 12.7612C7.22297 11.9856 7.83832 11.3545 8.59413 11.3545L9.07274 11.355V11.975C9.07274 12.7104 9.20981 13.455 9.46719 14.1679H8.59475ZM10.3188 11.975V11.1551L20.0682 8.41261V12.0808C20.0682 14.3197 18.7474 16.2339 16.897 16.976C16.8676 16.9852 16.8391 16.996 16.8121 17.009C16.3054 17.2007 15.7607 17.3055 15.1935 17.3055C12.4035 17.3055 10.3188 14.4912 10.3188 11.975ZM15.1936 18.5516C15.6908 18.5516 16.1791 18.4881 16.6507 18.3654L17.2094 20.4447C17.2134 20.4597 17.218 20.4745 17.2231 20.4891C17.3677 20.9016 17.587 21.2755 17.8629 21.5968C17.3459 22.0513 16.354 22.729 15.0335 22.729C13.7133 22.729 12.8098 22.0532 12.3578 21.608C12.6263 21.279 12.8365 20.8993 12.9704 20.4836C12.9747 20.4704 12.9785 20.457 12.9818 20.4435L13.5217 18.2816C14.062 18.4593 14.6234 18.5516 15.1936 18.5516ZM10.7034 22.7162C10.7228 22.712 10.742 22.7068 10.7609 22.7008C10.9876 22.6284 11.2032 22.5314 11.4066 22.415C11.9951 23.0173 13.2159 23.975 15.0336 23.975C16.8911 23.975 18.2258 22.971 18.8468 22.3849C19.0627 22.4998 19.2914 22.5933 19.5315 22.6596C19.5488 22.6644 19.5661 22.6684 19.5836 22.6716L23.9606 23.4852C24.0209 23.5026 24.0796 23.5235 24.1374 23.546C23.9357 23.6776 23.7214 23.842 23.507 24.0473C22.8268 24.699 22.0278 25.8967 21.8929 27.9761H8.55963C8.42483 25.8967 7.62574 24.699 6.94555 24.0473C6.77863 23.8874 6.61176 23.7525 6.45073 23.6383L10.7034 22.7162ZM4.80799 25.3C4.88252 24.9556 5.03676 24.6411 5.24973 24.3772C5.85006 24.6425 7.12612 25.4941 7.31088 27.9762H4.22849L4.80799 25.3ZM23.1418 27.9762C23.3234 25.5373 24.5585 24.6725 25.171 24.3915C25.3054 24.5998 25.4068 24.8327 25.4663 25.083L26.1542 27.9762H23.1418Z" fill="white"/>
<path d="M26.877 6.86481H22.3184C22.0063 3.14907 18.9302 0.222168 15.1935 0.222168C11.2502 0.222168 8.04199 3.48155 8.04199 7.48786C8.04199 7.83195 8.32095 8.1109 8.66504 8.1109H15.7534H21.7219H26.877C27.2211 8.1109 27.5 7.83195 27.5 7.48786C27.5 7.14377 27.2211 6.86481 26.877 6.86481ZM14.5864 1.50021V6.86487H9.31952C9.60561 4.04065 11.8152 1.78998 14.5864 1.50021ZM15.8325 6.86481V1.50366C18.5886 1.80731 20.7824 4.05147 21.0675 6.86481H15.8325Z" fill="white"/>
</g>
<defs>
<clipPath id="clip0_1329_5146">
<rect width="29" height="29" fill="white" transform="translate(0.720703 0.222168)"/>
</clipPath>
</defs>
</svg>
