<svg width="21" height="21" viewBox="0 0 21 21" fill="none" xmlns="http://www.w3.org/2000/svg">
<g clip-path="url(#clip0_1559_1243)">
<path d="M14.2512 0.988281H6.69807C5.50667 0.988281 4.53735 1.95756 4.53735 3.149V18.0673C4.53735 19.2588 5.50663 20.2281 6.69807 20.2281H14.2512C15.4426 20.2281 16.4119 19.2588 16.4119 18.0673V3.149C16.4119 1.95756 15.4426 0.988281 14.2512 0.988281ZM6.69807 2.11561H14.2512C14.821 2.11561 15.2846 2.57921 15.2846 3.149V15.8315H5.66468V3.149C5.66468 2.57921 6.12828 2.11561 6.69807 2.11561ZM14.2512 19.1008H6.69807C6.12824 19.1008 5.66468 18.6372 5.66468 18.0674V16.9588H15.2846V18.0673C15.2846 18.6372 14.821 19.1008 14.2512 19.1008Z" fill="#62656F"/>
<path d="M10.4748 17.4102C10.1635 17.4102 9.91113 17.6625 9.91113 17.9738V18.049C9.91113 18.3603 10.1635 18.6126 10.4748 18.6126C10.7861 18.6126 11.0385 18.3603 11.0385 18.049V17.9738C11.0385 17.6625 10.7861 17.4102 10.4748 17.4102Z" fill="#62656F"/>
</g>
<defs>
<clipPath id="clip0_1559_1243">
<rect width="19.2398" height="19.2398" fill="white" transform="translate(0.854492 0.988281)"/>
</clipPath>
</defs>
</svg>
