<svg width="41" height="40" viewBox="0 0 41 40" fill="none" xmlns="http://www.w3.org/2000/svg">
<path d="M40.3926 15.7984V32.2622C40.3926 36.3452 37.0157 39.6709 32.8699 39.6709H7.79419C3.64834 39.6709 0.271484 36.3452 0.271484 32.2622V12.5056C0.271484 8.42256 3.64834 5.09686 7.79419 5.09686H22.8396C23.3077 5.09686 23.6755 5.45907 23.6755 5.92006C23.6755 6.38104 23.3077 6.74325 22.8396 6.74325H7.79419C5.10273 6.74325 2.8292 8.53781 2.1438 10.9745L16.1862 24.8041C18.4597 27.0596 22.1709 27.0432 24.4612 24.8041L32.2681 16.8685C32.5857 16.5392 33.1206 16.5392 33.455 16.852C33.7893 17.1649 33.7893 17.6917 33.4717 18.021L25.6648 25.973C24.1937 27.4218 22.2545 28.1462 20.332 28.1462C18.4096 28.1462 16.4871 27.4218 15.016 25.973L1.9432 13.0983V32.2622C1.9432 35.4397 4.56778 38.0245 7.79419 38.0245H32.8699C36.0963 38.0245 38.7209 35.4397 38.7209 32.2622V15.7984C38.7209 15.3374 39.0886 14.9752 39.5567 14.9752C40.0248 14.9752 40.3926 15.3374 40.3926 15.7984ZM27.0189 6.74325C27.0189 3.10474 30.0112 0.157715 33.7057 0.157715C37.4002 0.157715 40.3926 3.10474 40.3926 6.74325C40.3926 10.3818 37.4002 13.3288 33.7057 13.3288C30.0112 13.3288 27.0189 10.3818 27.0189 6.74325ZM28.6906 6.74325C28.6906 9.45978 30.9474 11.6824 33.7057 11.6824C36.4641 11.6824 38.7209 9.45978 38.7209 6.74325C38.7209 4.02672 36.4641 1.8041 33.7057 1.8041C30.9474 1.8041 28.6906 4.02672 28.6906 6.74325Z" fill="#2F2E41"/>
</svg>
