<?xml version="1.0" encoding="utf-8"?>
<!-- Generator: Adobe Illustrator 27.8.0, SVG Export Plug-In . SVG Version: 6.00 Build 0)  -->
<svg version="1.1" id="Layer_1" xmlns="http://www.w3.org/2000/svg" xmlns:xlink="http://www.w3.org/1999/xlink" x="0px" y="0px"
	 viewBox="0 0 20.8 25.1" style="enable-background:new 0 0 20.8 25.1;" xml:space="preserve">
<style type="text/css">
	.st0{fill:#FFFFFF;}
</style>
<g>
	<g>
		<path class="st0" d="M6.6,21.9c0.4,1.8,1.9,3.1,3.8,3.1v-3.1H6.6z"/>
		<path class="st0" d="M9.4,1v1.1C5.9,2.7,3.1,5.7,3.1,9.4v2.9c0,2.1-0.9,4-2.5,5.4C0.2,18,0,18.5,0,19.1c0,1,0.8,1.8,1.8,1.8h8.6V0
			C9.9,0,9.4,0.5,9.4,1z"/>
	</g>
	<g>
		<path class="st0" d="M14.2,21.9c-0.4,1.8-1.9,3.1-3.8,3.1v-3.1H14.2z"/>
		<path class="st0" d="M11.4,1v1.1c3.5,0.5,6.3,3.6,6.3,7.2v2.9c0,2.1,0.9,4,2.5,5.4c0.4,0.3,0.6,0.9,0.6,1.4c0,1-0.8,1.8-1.8,1.8
			h-8.6V0C10.9,0,11.4,0.5,11.4,1z"/>
	</g>
</g>
</svg>
