<?xml version="1.0" encoding="utf-8"?>
<!-- Generator: Adobe Illustrator 27.8.0, SVG Export Plug-In . SVG Version: 6.00 Build 0)  -->
<svg version="1.1" id="Layer_1" xmlns="http://www.w3.org/2000/svg" xmlns:xlink="http://www.w3.org/1999/xlink" x="0px" y="0px"
	 viewBox="0 0 21 25.1" style="enable-background:new 0 0 21 25.1;" xml:space="preserve">
<style type="text/css">
	.st0{fill-rule:evenodd;clip-rule:evenodd;fill:#FFFFFF;}
	.st1{fill:#FCB424;}
</style>
<path class="st0" d="M17.8,12.3c0,2.1,0.9,4,2.5,5.4c0.4,0.4,0.6,0.9,0.6,1.4c0,1-0.8,1.8-1.8,1.8H1.8c-1,0-1.8-0.8-1.8-1.8
	c0-0.5,0.2-1,0.6-1.4c1.6-1.3,2.5-3.3,2.5-5.4V9.4c0-3.7,2.7-6.7,6.3-7.2V1c0-0.6,0.5-1,1-1c0.6,0,1,0.5,1,1v1.1
	c0.6,0.1,1.2,0.3,1.8,0.5c-1.1,0.8-1.8,2.1-1.8,3.5c0,2.4,2,4.4,4.4,4.4c0.7,0,1.3-0.2,1.9-0.4V12.3z M14.3,22
	c-0.4,1.8-1.9,3.1-3.8,3.1c-1.9,0-3.5-1.3-3.8-3.1H14.3z"/>
<circle class="st1" cx="15.9" cy="6.2" r="2.9"/>
</svg>
