<svg width="26" height="25" viewBox="0 0 26 25" fill="none" xmlns="http://www.w3.org/2000/svg">
<path d="M16.3011 6.25072C16.3011 2.80398 13.4981 0.000976562 10.0514 0.000976562C6.60464 0.000976562 3.80163 2.80398 3.80163 6.25072C3.80163 9.69745 6.60464 12.5005 10.0514 12.5005C13.4981 12.5005 16.3011 9.69745 16.3011 6.25072ZM10.0514 10.4172C7.75355 10.4172 5.88487 8.54854 5.88487 6.25072C5.88487 3.9529 7.75355 2.08422 10.0514 2.08422C12.3492 2.08422 14.2179 3.9529 14.2179 6.25072C14.2179 8.54854 12.3492 10.4172 10.0514 10.4172ZM23.5925 17.7086C23.5925 17.1336 23.4987 16.5815 23.3258 16.0638L25.2216 14.9712L24.182 13.1661L22.2831 14.2598C21.5478 13.4296 20.552 12.8348 19.426 12.6046V10.4162H17.3427V12.6046C16.2157 12.8348 15.2209 13.4296 14.4856 14.2598L12.5867 13.1661L11.5471 14.9712L13.4429 16.0638C13.27 16.5815 13.1762 17.1336 13.1762 17.7086C13.1762 18.2836 13.27 18.8356 13.4429 19.3533L11.5471 20.446L12.5867 22.2511L14.4856 21.1574C15.2209 21.9876 16.2167 22.5823 17.3427 22.8125V25.001H19.426V22.8125C20.553 22.5823 21.5478 21.9876 22.2831 21.1574L24.182 22.2511L25.2216 20.446L23.3258 19.3533C23.4987 18.8356 23.5925 18.2836 23.5925 17.7086ZM18.3844 20.8334C16.6615 20.8334 15.2595 19.4314 15.2595 17.7086C15.2595 15.9857 16.6615 14.5837 18.3844 14.5837C20.1072 14.5837 21.5092 15.9857 21.5092 17.7086C21.5092 19.4314 20.1072 20.8334 18.3844 20.8334ZM5.88487 14.5837H9.00974V16.667H5.88487C4.16203 16.667 2.76 18.069 2.76 19.7918V24.9999H0.676758V19.7918C0.676758 16.9201 3.01312 14.5837 5.88487 14.5837Z" fill="#D9D9D9"/>
</svg>
