<svg width="41" height="40" viewBox="0 0 41 40" fill="none" xmlns="http://www.w3.org/2000/svg">
<path d="M15.5658 9.09599C15.2766 7.85482 14.2034 7.02086 12.8945 7.02086C11.5855 7.02086 10.514 7.85645 10.2365 9.05038L5.32 25.5244C5.19295 25.9528 5.49553 26.5636 6.10403 26.5652C6.09734 26.5652 6.09901 26.5652 6.12242 26.5652C6.15418 26.5652 6.14916 26.5652 6.13746 26.5652C6.49353 26.5587 6.82119 26.3307 6.92483 25.9788L8.69014 20.0629H16.9901L18.6919 25.9707C18.8173 26.4056 19.2803 26.658 19.7233 26.5359C20.168 26.4154 20.4271 25.9642 20.3017 25.5325L15.5658 9.09599ZM9.17493 18.4341L11.853 9.45759C11.9917 8.86144 12.4815 8.64806 12.8945 8.64806C13.3074 8.64806 13.7972 8.86144 13.946 9.49668L16.5204 18.4341H9.17493ZM31.1978 24.122C31.1978 24.5715 30.8234 24.9364 30.362 24.9364H24.5111C24.0497 24.9364 23.6752 24.5715 23.6752 24.122C23.6752 23.6724 24.0497 23.3075 24.5111 23.3075H30.362C30.8234 23.3075 31.1978 23.6724 31.1978 24.122ZM34.5412 9.46248C34.5412 9.91203 34.1668 10.2769 33.7054 10.2769H24.5111C24.0497 10.2769 23.6752 9.91203 23.6752 9.46248C23.6752 9.01292 24.0497 8.64806 24.5111 8.64806H33.7054C34.1668 8.64806 34.5412 9.01292 34.5412 9.46248ZM34.5412 0.503906H6.12242C2.89605 0.505535 0.271484 3.0628 0.271484 6.20644V27.3812C0.271484 30.5249 2.89605 33.0822 6.12242 33.0822H12.1505L18.6651 38.4296C19.1432 38.8433 19.7434 39.0486 20.3385 39.0486C20.9286 39.0486 21.5137 38.8482 21.9751 38.4492L28.6368 33.0822H34.5412C37.7676 33.0822 40.3922 30.5249 40.3922 27.3812V6.20644C40.3922 3.0628 37.7676 0.505535 34.5412 0.505535V0.503906ZM38.7205 27.3796C38.7205 29.6258 36.8465 31.4517 34.5412 31.4517H28.3359C28.142 31.4517 27.9531 31.5185 27.8043 31.6374L20.8885 37.2096C20.5709 37.4865 20.0928 37.4849 19.7601 37.195L12.9948 31.6423C12.8443 31.5201 12.6521 31.4517 12.4565 31.4517H6.12242C3.81882 31.4517 1.94318 29.6258 1.94318 27.3796V6.20644C1.94318 3.96029 3.81882 2.13437 6.12242 2.13437H34.5412C36.8465 2.13437 38.7205 3.96029 38.7205 6.20644V27.3796ZM34.5412 19.2355C34.5412 19.685 34.1668 20.0499 33.7054 20.0499H24.5111C24.0497 20.0499 23.6752 19.685 23.6752 19.2355C23.6752 18.7859 24.0497 18.421 24.5111 18.421H33.7054C34.1668 18.421 34.5412 18.7859 34.5412 19.2355ZM34.5412 14.349C34.5412 14.7985 34.1668 15.1634 33.7054 15.1634H24.5111C24.0497 15.1634 23.6752 14.7985 23.6752 14.349C23.6752 13.8994 24.0497 13.5346 24.5111 13.5346H33.7054C34.1668 13.5346 34.5412 13.8994 34.5412 14.349Z" fill="#2F2E41"/>
</svg>
