<svg width="18" height="17" viewBox="0 0 18 17" fill="none" xmlns="http://www.w3.org/2000/svg">
<path d="M15.3278 9.51074H13.9424C14.0836 9.91767 14.1607 10.3568 14.1607 10.8145V16.3256C14.1607 16.5165 14.1292 16.6996 14.0718 16.87H16.3621C17.2177 16.87 17.9137 16.1374 17.9137 15.2369V12.2325C17.9137 10.7318 16.7537 9.51074 15.3278 9.51074Z" fill="#ABABAB"/>
<path d="M3.75273 10.8155C3.75273 10.3578 3.82988 9.91865 3.97109 9.51172H2.58571C1.15981 9.51172 -0.000244141 10.7327 -0.000244141 12.2336V15.2379C-0.000244141 16.1384 0.695769 16.871 1.55133 16.871H3.8417C3.78429 16.7006 3.75273 16.5174 3.75273 16.3266V10.8155Z" fill="#ABABAB"/>
<path d="M10.539 8.09277H7.37184C5.94595 8.09277 4.78589 9.31379 4.78589 10.8146V16.3257C4.78589 16.6263 5.01744 16.8701 5.30308 16.8701H12.6078C12.8934 16.8701 13.125 16.6263 13.125 16.3257V10.8146C13.125 9.31379 11.9649 8.09277 10.539 8.09277Z" fill="#ABABAB"/>
<path d="M8.95661 0.875C7.24179 0.875 5.84668 2.34342 5.84668 4.14839C5.84668 5.37269 6.48867 6.44195 7.43677 7.00333C7.88647 7.26958 8.40492 7.42175 8.95661 7.42175C9.5083 7.42175 10.0267 7.26958 10.4764 7.00333C11.4246 6.44195 12.0665 5.37265 12.0665 4.14839C12.0665 2.34345 10.6714 0.875 8.95661 0.875Z" fill="#ABABAB"/>
<path d="M3.49574 3.92676C2.21326 3.92676 1.16992 5.02492 1.16992 6.3748C1.16992 7.72467 2.21326 8.82284 3.49574 8.82284C3.82106 8.82284 4.13084 8.75191 4.41225 8.62441C4.89879 8.40393 5.29996 8.01365 5.5482 7.52478C5.72244 7.18166 5.82156 6.79024 5.82156 6.3748C5.82156 5.02496 4.77822 3.92676 3.49574 3.92676Z" fill="#ABABAB"/>
<path d="M14.4161 3.92676C13.1337 3.92676 12.0903 5.02492 12.0903 6.3748C12.0903 6.79027 12.1895 7.1817 12.3637 7.52478C12.6119 8.01368 13.0131 8.40397 13.4996 8.62441C13.7811 8.75191 14.0908 8.82284 14.4161 8.82284C15.6986 8.82284 16.742 7.72467 16.742 6.3748C16.742 5.02492 15.6986 3.92676 14.4161 3.92676Z" fill="#ABABAB"/>
</svg>
