<svg width="23" height="23" viewBox="0 0 23 23" fill="none" xmlns="http://www.w3.org/2000/svg">
<path d="M11.7993 0.260254C5.73392 0.260254 0.799316 5.19486 0.799316 11.2603C0.799316 17.3256 5.73392 22.2603 11.7993 22.2603C17.8647 22.2603 22.7993 17.3256 22.7993 11.2603C22.7993 5.19486 17.8647 0.260254 11.7993 0.260254ZM11.7993 21.071C9.1045 21.071 6.66024 19.9788 4.88535 18.214C4.17658 17.5092 3.57492 16.697 3.10645 15.8044C2.393 14.445 1.98852 12.8991 1.98852 11.2603C1.98852 5.85056 6.38962 1.44946 11.7993 1.44946C14.3652 1.44946 16.7038 2.44007 18.4539 4.05843C19.3612 4.89741 20.1105 5.90497 20.6508 7.03114C21.2655 8.31244 21.6101 9.74684 21.6101 11.2603C21.6101 16.6699 17.209 21.071 11.7993 21.071Z" fill="white"/>
<path d="M12.9618 14.2042C14.2665 14.4771 15.4384 15.2106 16.2618 16.2696L17.2006 15.5398C16.2045 14.2584 14.7855 13.3706 13.2052 13.0401C10.6636 12.509 7.99156 13.4899 6.39795 15.5398L7.3369 16.2696C8.65365 14.5758 10.8616 13.7649 12.9618 14.2042Z" fill="white"/>
<path d="M8.1327 9.99672C8.78948 9.99672 9.3219 9.4643 9.3219 8.80752C9.3219 8.15074 8.78948 7.61831 8.1327 7.61831C7.47592 7.61831 6.94349 8.15074 6.94349 8.80752C6.94349 9.4643 7.47592 9.99672 8.1327 9.99672Z" fill="white"/>
<path d="M15.4909 9.99672C16.1477 9.99672 16.6801 9.4643 16.6801 8.80752C16.6801 8.15074 16.1477 7.61831 15.4909 7.61831C14.8341 7.61831 14.3017 8.15074 14.3017 8.80752C14.3017 9.4643 14.8341 9.99672 15.4909 9.99672Z" fill="white"/>
</svg>
