<svg width="23" height="23" viewBox="0 0 23 23" fill="none" xmlns="http://www.w3.org/2000/svg">
<path d="M11.7993 0.09375C5.73389 0.09375 0.799316 5.02832 0.799316 11.0938C0.799316 17.1592 5.73389 22.0938 11.7993 22.0938C17.8647 22.0938 22.7993 17.1592 22.7993 11.0938C22.7993 5.02832 17.8647 0.09375 11.7993 0.09375ZM11.7993 20.7188C6.49207 20.7188 2.17432 16.401 2.17432 11.0938C2.17432 5.78651 6.49207 1.46875 11.7993 1.46875C17.1066 1.46875 21.4243 5.78651 21.4243 11.0938C21.4243 16.401 17.1066 20.7188 11.7993 20.7188ZM7.27432 9.75987C6.51584 9.75987 5.89872 9.1428 5.89872 8.38427C5.89872 7.62574 6.51579 7.00867 7.27432 7.00867C8.03285 7.00867 8.64992 7.62574 8.64992 8.38427C8.64992 9.1428 8.03285 9.75987 7.27432 9.75987ZM17.6999 8.38427C17.6999 9.14275 17.0828 9.75987 16.3243 9.75987C15.5657 9.75987 14.9487 9.1428 14.9487 8.38427C14.9487 7.62574 15.5657 7.00867 16.3243 7.00867C17.0828 7.00867 17.6999 7.62579 17.6999 8.38427ZM16.8023 15.0644C16.8023 15.4441 16.4945 15.7519 16.1148 15.7519H7.48384C7.10412 15.7519 6.79634 15.4441 6.79634 15.0644C6.79634 14.6847 7.10412 14.3769 7.48384 14.3769H16.1148C16.4945 14.3769 16.8023 14.6847 16.8023 15.0644Z" fill="#009000"/>
</svg>
