<svg width="24" height="26" viewBox="0 0 24 26" fill="none" xmlns="http://www.w3.org/2000/svg">
<path d="M12.0156 8.36263C11.1886 8.36263 10.3802 8.60786 9.69255 9.06731C9.00494 9.52676 8.46901 10.1798 8.15253 10.9438C7.83606 11.7079 7.75326 12.5486 7.91459 13.3597C8.07593 14.1708 8.47416 14.9158 9.05893 15.5006C9.6437 16.0854 10.3887 16.4836 11.1998 16.6449C12.0109 16.8063 12.8517 16.7235 13.6157 16.407C14.3797 16.0905 15.0328 15.5546 15.4922 14.867C15.9517 14.1793 16.1969 13.3709 16.1969 12.5439C16.1969 11.435 15.7563 10.3715 14.9722 9.58731C14.1881 8.80316 13.1245 8.36263 12.0156 8.36263ZM12.0156 14.6346C11.6021 14.6346 11.1979 14.512 10.8541 14.2823C10.5103 14.0525 10.2423 13.726 10.084 13.344C9.92581 12.962 9.88441 12.5416 9.96508 12.1361C10.0457 11.7305 10.2449 11.358 10.5372 11.0656C10.8296 10.7732 11.2022 10.5741 11.6077 10.4935C12.0132 10.4128 12.4336 10.4542 12.8156 10.6124C13.1976 10.7707 13.5242 11.0386 13.7539 11.3824C13.9836 11.7262 14.1062 12.1305 14.1062 12.5439C14.1062 13.0984 13.886 13.6302 13.4939 14.0223C13.1018 14.4143 12.57 14.6346 12.0156 14.6346Z" fill="white"/>
<path d="M21.7309 14.5301L21.2667 14.2625C21.4757 13.1256 21.4757 11.9602 21.2667 10.8233L21.7309 10.5557C22.0878 10.3498 22.4006 10.0756 22.6516 9.7488C22.9025 9.42198 23.0866 9.04893 23.1934 8.65095C23.3002 8.25297 23.3275 7.83786 23.2739 7.42932C23.2202 7.02077 23.0866 6.6268 22.8807 6.26988C22.6748 5.91297 22.4006 5.60011 22.0738 5.34916C21.747 5.09821 21.3739 4.9141 20.9759 4.80732C20.578 4.70055 20.1628 4.67321 19.7543 4.72686C19.3458 4.78051 18.9518 4.91411 18.5949 5.12002L18.1297 5.38867C17.2511 4.63804 16.2415 4.05613 15.1516 3.67224V3.13599C15.1516 2.30427 14.8212 1.50662 14.233 0.918509C13.6449 0.330398 12.8473 0 12.0156 0C11.1839 0 10.3862 0.330398 9.79809 0.918509C9.20998 1.50662 8.87958 2.30427 8.87958 3.13599V3.67224C7.78971 4.05751 6.7804 4.64084 5.90248 5.39285L5.43522 5.12211C4.7144 4.70625 3.85791 4.59377 3.05415 4.80941C2.2504 5.02505 1.56523 5.55115 1.14937 6.27197C0.733516 6.99279 0.621035 7.84929 0.836676 8.65304C1.05232 9.45679 1.57841 10.142 2.29923 10.5578L2.76336 10.8254C2.55441 11.9623 2.55441 13.1277 2.76336 14.2646L2.29923 14.5322C1.57841 14.948 1.05232 15.6332 0.836676 16.4369C0.621035 17.2407 0.733516 18.0972 1.14937 18.818C1.56523 19.5388 2.2504 20.0649 3.05415 20.2806C3.85791 20.4962 4.7144 20.3837 5.43522 19.9679L5.90039 19.6992C6.77927 20.45 7.78928 21.0319 8.87958 21.4157V21.9519C8.87958 22.7836 9.20998 23.5813 9.79809 24.1694C10.3862 24.7575 11.1839 25.0879 12.0156 25.0879C12.8473 25.0879 13.6449 24.7575 14.233 24.1694C14.8212 23.5813 15.1516 22.7836 15.1516 21.9519V21.4157C16.2414 21.0304 17.2507 20.4471 18.1286 19.695L18.5959 19.9647C19.3167 20.3806 20.1732 20.4931 20.977 20.2774C21.7807 20.0618 22.4659 19.5357 22.8818 18.8149C23.2976 18.0941 23.4101 17.2376 23.1945 16.4338C22.9788 15.6301 22.4527 14.9449 21.7319 14.529L21.7309 14.5301ZM19.0674 10.5829C19.4213 11.8656 19.4213 13.2202 19.0674 14.5029C19.0055 14.7261 19.0196 14.9636 19.1074 15.178C19.1952 15.3923 19.3517 15.5715 19.5524 15.6873L20.6855 16.3416C20.9258 16.4802 21.1011 16.7086 21.1729 16.9765C21.2448 17.2444 21.2073 17.5298 21.0686 17.7701C20.93 18.0103 20.7016 18.1856 20.4338 18.2575C20.1659 18.3293 19.8804 18.2918 19.6402 18.1532L18.505 17.4967C18.3042 17.3804 18.0703 17.3342 17.8404 17.3655C17.6104 17.3967 17.3974 17.5035 17.2349 17.6692C16.3045 18.619 15.1323 19.2967 13.8449 19.6292C13.6202 19.687 13.4211 19.8178 13.2789 20.0012C13.1368 20.1846 13.0597 20.4101 13.0598 20.6421V21.9519C13.0598 22.2291 12.9497 22.495 12.7537 22.6911C12.5576 22.8871 12.2918 22.9972 12.0145 22.9972C11.7373 22.9972 11.4714 22.8871 11.2754 22.6911C11.0793 22.495 10.9692 22.2291 10.9692 21.9519V20.6432C10.9693 20.4111 10.8922 20.1857 10.7501 20.0023C10.608 19.8189 10.4089 19.688 10.1841 19.6302C8.89667 19.2964 7.72483 18.6173 6.79519 17.6661C6.63267 17.5004 6.41965 17.3935 6.18969 17.3623C5.95974 17.3311 5.72593 17.3773 5.52512 17.4936L4.39198 18.149C4.27306 18.2187 4.14151 18.2642 4.00492 18.2829C3.86834 18.3016 3.7294 18.2931 3.59613 18.2578C3.46285 18.2226 3.33785 18.1613 3.22834 18.0776C3.11883 17.9938 3.02697 17.8893 2.95804 17.7699C2.88911 17.6505 2.84447 17.5187 2.8267 17.3819C2.80894 17.2452 2.81838 17.1064 2.8545 16.9733C2.89062 16.8403 2.9527 16.7157 3.03717 16.6067C3.12163 16.4978 3.22681 16.4066 3.34665 16.3385L4.47979 15.6841C4.68044 15.5683 4.83695 15.3892 4.92475 15.1748C5.01254 14.9605 5.02663 14.723 4.96482 14.4998C4.61083 13.2171 4.61083 11.8625 4.96482 10.5798C5.02552 10.357 5.01075 10.1204 4.92282 9.90689C4.83488 9.69339 4.67873 9.51501 4.47875 9.3996L3.34561 8.74522C3.10538 8.6066 2.93006 8.37823 2.85821 8.11035C2.78637 7.84246 2.82388 7.55701 2.9625 7.31678C3.10112 7.07655 3.32949 6.90123 3.59737 6.82938C3.86526 6.75753 4.15071 6.79505 4.39094 6.93367L5.52616 7.59013C5.72643 7.7067 5.95975 7.75342 6.18945 7.72296C6.41916 7.6925 6.63224 7.58657 6.79519 7.42183C7.72563 6.47199 8.89779 5.79428 10.1852 5.46184C10.4106 5.40389 10.6102 5.27238 10.7524 5.08814C10.8946 4.9039 10.9713 4.67747 10.9702 4.44474V3.13599C10.9702 2.85875 11.0804 2.59286 11.2764 2.39683C11.4724 2.20079 11.7383 2.09066 12.0156 2.09066C12.2928 2.09066 12.5587 2.20079 12.7547 2.39683C12.9508 2.59286 13.0609 2.85875 13.0609 3.13599V4.44474C13.0608 4.67676 13.1379 4.90222 13.28 5.08561C13.4221 5.269 13.6212 5.39989 13.8459 5.45766C15.1338 5.79128 16.306 6.47046 17.2359 7.42183C17.3985 7.58748 17.6115 7.69434 17.8414 7.72557C18.0714 7.7568 18.3052 7.71062 18.506 7.59431L19.6391 6.93889C19.7581 6.86917 19.8896 6.82366 20.0262 6.80499C20.1628 6.78631 20.3017 6.79484 20.435 6.83007C20.5683 6.86531 20.6933 6.92656 20.8028 7.0103C20.9123 7.09404 21.0042 7.19862 21.0731 7.318C21.142 7.43739 21.1867 7.56924 21.2044 7.70594C21.2222 7.84265 21.2127 7.98152 21.1766 8.11457C21.1405 8.24761 21.0784 8.37219 20.994 8.48114C20.9095 8.5901 20.8043 8.68126 20.6845 8.7494L19.5513 9.40378C19.3517 9.5195 19.196 9.69801 19.1085 9.91149C19.0209 10.125 19.0065 10.3614 19.0674 10.584V10.5829Z" fill="white"/>
</svg>
