<svg width="18" height="18" viewBox="0 0 18 18" fill="none" xmlns="http://www.w3.org/2000/svg">
<path d="M17.3286 16.6883L12.925 12.2847C14.0689 10.8857 14.6313 9.10053 14.4959 7.29849C14.3605 5.49646 13.5377 3.8154 12.1976 2.60303C10.8575 1.39067 9.10271 0.739748 7.29616 0.784918C5.48961 0.830087 3.76953 1.56789 2.49171 2.84571C1.21388 4.12353 0.476083 5.84361 0.430914 7.65016C0.385744 9.45671 1.03666 11.2115 2.24903 12.5516C3.4614 13.8917 5.14245 14.7145 6.94449 14.8499C8.74652 14.9853 10.5317 14.4229 11.9307 13.279L16.3343 17.6826L17.3286 16.6883ZM7.48347 13.4633C6.37079 13.4633 5.2831 13.1333 4.35794 12.5152C3.43278 11.897 2.71171 11.0183 2.28591 9.99037C1.8601 8.96239 1.74869 7.83123 1.96577 6.73993C2.18284 5.64863 2.71865 4.64621 3.50543 3.85943C4.29221 3.07265 5.29463 2.53684 6.38593 2.31977C7.47723 2.1027 8.60839 2.21411 9.63637 2.63991C10.6643 3.06571 11.543 3.78679 12.1611 4.71194C12.7793 5.6371 13.1093 6.72479 13.1093 7.83747C13.1076 9.32901 12.5143 10.759 11.4597 11.8137C10.405 12.8683 8.97501 13.4616 7.48347 13.4633Z" fill="#6F6F6F"/>
</svg>
