<svg width="25" height="30" viewBox="0 0 25 30" fill="none" xmlns="http://www.w3.org/2000/svg">
<path d="M23.9942 27.897L23.2563 24.7986C22.9655 23.5773 22.0416 22.6137 20.845 22.2835C20.834 22.2805 20.823 22.2778 20.8118 22.2753L17.0718 21.4613C16.3992 21.2703 15.8581 20.7571 15.6224 20.0858L15.0842 18.5531C16.5158 17.8074 17.6375 16.4805 18.1817 14.8601H19.131C20.5751 14.8601 21.75 13.671 21.75 12.2094C21.75 10.723 20.5652 9.55857 19.0527 9.55857H18.5424V7.13818H17.2958V12.6385C17.2958 15.574 15.1081 17.9622 12.4191 17.9622C9.73013 17.9622 7.5424 15.574 7.5424 12.6385V7.3139H6.2958V9.55982L5.8659 9.55857C4.42182 9.55857 3.24696 10.7477 3.24696 12.2094C3.24696 13.671 4.42176 14.8601 5.8659 14.8601H6.65641C7.15856 16.3552 8.15239 17.6001 9.42755 18.3694C9.29133 18.9295 9.09335 19.7083 8.98251 20.0112C8.76351 20.6097 8.21795 21.3208 7.59901 21.5217C6.64542 21.8314 3.62043 22.4716 3.58994 22.478C3.56954 22.4823 3.54931 22.4876 3.52943 22.494C2.3715 22.8633 1.49033 23.8387 1.22984 25.0399L0.605579 27.9183C0.53594 28.2394 0.614022 28.57 0.819825 28.8251C1.02347 29.0777 1.32572 29.2226 1.64893 29.2226H22.9557C23.2831 29.2226 23.5878 29.0746 23.7915 28.8166C23.9974 28.556 24.0713 28.2208 23.9942 27.897ZM19.0528 10.8052C19.8663 10.8052 20.5035 11.422 20.5035 12.2094C20.5035 12.9836 19.8879 13.6135 19.1311 13.6135H18.4749C18.5192 13.2953 18.5424 12.9698 18.5424 12.6386V10.8052H19.0528V10.8052ZM5.86595 13.6135C5.10927 13.6135 4.49361 12.9836 4.49361 12.2094C4.49361 11.4351 5.10921 10.8052 5.86414 10.8052L6.29586 10.8064V12.6385C6.29586 12.9698 6.31909 13.2953 6.36335 13.6135H5.86595ZM18.4353 24.9075H14.0052L16.3514 22.7268L18.4353 24.9075ZM12.4192 19.2088C12.9378 19.2088 13.4415 19.139 13.9228 19.0081L14.4462 20.4988C14.6408 21.0527 14.9697 21.5373 15.3915 21.9171L12.4396 24.6609L9.46869 21.6273C9.77626 21.2495 10.0108 20.8289 10.1533 20.4395C10.2731 20.1121 10.449 19.435 10.5799 18.9058C11.1607 19.1025 11.7785 19.2088 12.4192 19.2088ZM8.62236 22.5449L10.9363 24.9075H6.49373L8.62236 22.5449ZM2.44817 25.3041C2.61232 24.5473 3.15981 23.9316 3.88046 23.6908C4.10598 23.643 5.32379 23.3832 6.42664 23.1196L4.63012 25.1136C4.46534 25.2965 4.42364 25.5593 4.52376 25.7842C4.62388 26.0092 4.84703 26.1541 5.09323 26.1541H11.7959V27.9759H1.86867L2.44817 25.3041ZM13.0425 27.976V26.1541H19.8929C20.1425 26.1541 20.3679 26.0053 20.466 25.7759C20.5642 25.5465 20.516 25.2806 20.3435 25.1002L18.3517 23.0157L20.5289 23.4896C21.2798 23.7028 21.8594 24.3137 22.0437 25.0874L22.7316 27.976H13.0425Z" fill="white"/>
<path d="M16.2648 8.41094H8.37724C6.6435 8.41094 5.23303 6.98239 5.23303 5.22649V0.845993C5.23303 0.603245 5.37395 0.382597 5.59415 0.280546C5.81429 0.178324 6.07381 0.213456 6.2591 0.370301C7.60605 1.51066 9.31287 2.14308 11.0652 2.15096L16.2785 2.17453C17.9687 2.18218 19.3438 3.58098 19.3438 5.29273C19.3438 7.01208 17.9626 8.41094 16.2648 8.41094ZM6.47963 2.06998V5.22649C6.47963 6.295 7.33089 7.16433 8.37724 7.16433H16.2648C17.2752 7.16433 18.0972 6.32475 18.0972 5.29268C18.0972 4.26519 17.2788 3.42561 16.2728 3.42107L11.0595 3.3975C9.43804 3.39019 7.85044 2.9251 6.47963 2.06998Z" fill="white"/>
</svg>
