<svg width="19" height="17" viewBox="0 0 19 17" fill="none" xmlns="http://www.w3.org/2000/svg">
<path d="M11.9287 0.777088C12.1499 0.3406 12.6901 0.1626 13.1352 0.37952C16.0964 1.82259 18.1347 4.82063 18.1347 8.2871C18.1347 11.7536 16.0964 14.7516 13.1352 16.1947C12.6901 16.4116 12.1499 16.2336 11.9287 15.7971C11.7075 15.3606 11.889 14.831 12.3342 14.6141C14.7071 13.4577 16.3347 11.0579 16.3347 8.2871C16.3347 5.51625 14.7071 3.11655 12.3342 1.96018C11.889 1.74326 11.7075 1.21358 11.9287 0.777088Z" fill="black"/>
<path d="M3.73477 4.75741H1.93477C0.940653 4.75741 0.134766 5.54766 0.134766 6.52249V10.0527C0.134766 11.0275 0.940653 11.8178 1.93477 11.8178H3.73477L7.65859 15.0242C8.24476 15.5033 9.13477 15.0945 9.13477 14.3462V2.22896C9.13477 1.48071 8.24476 1.07195 7.65859 1.55097L3.73477 4.75741Z" fill="black"/>
<path d="M13.4546 5.1094C13.1561 4.71967 12.5919 4.64105 12.1945 4.93378C11.7971 5.22651 11.7169 5.77974 12.0154 6.16946C12.4673 6.75937 12.7347 7.49135 12.7347 8.28706C12.7347 9.08276 12.4673 9.81474 12.0154 10.4046C11.7169 10.7944 11.7971 11.3476 12.1945 11.6404C12.5919 11.9331 13.1561 11.8545 13.4546 11.4647C14.1326 10.5796 14.5347 9.47814 14.5347 8.28706C14.5347 7.09598 14.1326 5.99448 13.4546 5.1094Z" fill="black"/>
</svg>
