<svg width="21" height="21" viewBox="0 0 21 21" fill="none" xmlns="http://www.w3.org/2000/svg">
<g clip-path="url(#clip0_1559_1257)">
<path d="M11.9547 8.52683C12.1748 8.74696 12.5317 8.74696 12.7518 8.52683L13.8563 7.42231L14.2093 7.77531C14.4295 7.99544 14.7863 7.99544 15.0065 7.77531L16.6746 6.10709V6.24939C16.6746 6.56069 16.927 6.81306 17.2383 6.81306C17.5496 6.81306 17.802 6.56069 17.802 6.24939V4.74628C17.802 4.43499 17.5496 4.18262 17.2383 4.18262H15.7352C15.4239 4.18262 15.1715 4.43499 15.1715 4.74628C15.1715 5.05758 15.4239 5.30995 15.7352 5.30995H15.8775L14.6079 6.57959L14.2549 6.22658C14.0347 6.00645 13.6779 6.00645 13.4577 6.22658L11.9546 7.7297C11.7345 7.94983 11.7345 8.30674 11.9547 8.52683Z" fill="#62656F"/>
<path d="M18.0799 15.719C18.3757 15.3614 18.5536 14.9029 18.5536 14.4037C18.5536 13.2641 17.6265 12.3369 16.4869 12.3369C15.3473 12.3369 14.4201 13.2641 14.4201 14.4037C14.4201 14.9029 14.5981 15.3614 14.8938 15.719C14.3164 16.0081 13.8276 16.4491 13.4807 16.9896C13.1337 16.4491 12.6449 16.0081 12.0675 15.719C12.3632 15.3614 12.5412 14.9029 12.5412 14.4037C12.5412 13.2641 11.614 12.3369 10.4744 12.3369C9.33481 12.3369 8.40765 13.2641 8.40765 14.4037C8.40765 14.9029 8.58562 15.3614 8.88139 15.719C7.71043 16.3054 6.90454 17.5168 6.90454 18.913V19.6646C6.90454 19.9759 7.15691 20.2282 7.46821 20.2282H19.4931C19.8044 20.2282 20.0568 19.9759 20.0568 19.6646V18.913C20.0568 17.5168 19.2509 16.3054 18.0799 15.719ZM10.4744 13.4642C10.9924 13.4642 11.4139 13.8857 11.4139 14.4037C11.4139 14.9217 10.9924 15.3431 10.4744 15.3431C9.95642 15.3431 9.53498 14.9217 9.53498 14.4037C9.53498 13.8857 9.95642 13.4642 10.4744 13.4642ZM12.917 19.1009H8.03187V18.913C8.03187 17.5662 9.1276 16.4705 10.4744 16.4705C11.8213 16.4705 12.917 17.5662 12.917 18.913V19.1009ZM16.4869 13.4642C17.0049 13.4642 17.4263 13.8857 17.4263 14.4037C17.4263 14.9217 17.0049 15.3431 16.4869 15.3431C15.9689 15.3431 15.5474 14.9217 15.5474 14.4037C15.5474 13.8857 15.9689 13.4642 16.4869 13.4642ZM18.9294 19.1009H14.0443V18.913C14.0443 17.5662 15.14 16.4705 16.4869 16.4705C17.8337 16.4705 18.9294 17.5662 18.9294 18.913V19.1009Z" fill="#62656F"/>
<path d="M19.4931 0.988281H7.72335C7.41206 0.988281 7.15968 1.24065 7.15968 1.55195V6.88435L4.81743 5.24426C5.17847 4.87198 5.40142 4.36498 5.40142 3.80661C5.40142 2.66699 4.47427 1.73984 3.33464 1.73984C2.19502 1.73984 1.26787 2.66699 1.26787 3.80661C1.26787 4.36645 1.49194 4.87469 1.85472 5.24723C1.27016 5.69392 0.89209 6.39783 0.89209 7.18861V19.6644C0.89209 19.9757 1.14446 20.2281 1.45576 20.2281H4.46198C4.77327 20.2281 5.02564 19.9757 5.02564 19.6644V12.6374H5.21353C5.52483 12.6374 5.7772 12.385 5.7772 12.0737V10.045L6.75343 10.7285C7.04767 10.9346 7.38711 11.0335 7.72098 11.0342L19.4931 11.0343C19.8044 11.0343 20.0567 10.7819 20.0567 10.4707V1.55195C20.0567 1.24065 19.8044 0.988281 19.4931 0.988281ZM3.33464 2.86717C3.85265 2.86717 4.27409 3.2886 4.27409 3.80661C4.27409 4.32462 3.85265 4.74606 3.33464 4.74606C2.81664 4.74606 2.3952 4.32462 2.3952 3.80661C2.3952 3.2886 2.81664 2.86717 3.33464 2.86717ZM3.89831 19.1008H2.01942V12.6374H3.89831V19.1008ZM8.18507 9.66664C8.0065 9.92164 7.65504 9.98365 7.40003 9.80508L4.69162 7.90868C4.43661 7.73011 4.08519 7.79207 3.90658 8.04711C3.72801 8.30212 3.78997 8.65362 4.04501 8.83215L4.64987 9.25562V11.5101H2.01942V7.18861C2.01942 6.4634 2.60943 5.87339 3.33464 5.87339C3.59141 5.87339 3.84138 5.94892 4.05753 6.09176C4.06752 6.09837 4.07786 6.10393 4.08812 6.10983L8.04663 8.8816C8.30164 9.06014 8.36364 9.4116 8.18507 9.66664ZM18.9294 9.90699H9.31755C9.46861 9.48048 9.4396 9.01455 9.24912 8.61473L13.0508 4.8131C13.2709 4.593 13.2709 4.23609 13.0508 4.01596C12.8307 3.79587 12.4737 3.79587 12.2536 4.01596L8.46867 7.80091L8.28702 7.6737V2.11561H18.9294V9.90699Z" fill="#62656F"/>
</g>
<defs>
<clipPath id="clip0_1559_1257">
<rect width="19.2398" height="19.2398" fill="white" transform="translate(0.854492 0.988281)"/>
</clipPath>
</defs>
</svg>
